<?xml version="1.0" encoding="UTF-8"?>
<svg version="1.1" xmlns="http://www.w3.org/2000/svg" width="96" height="96">
<path d="M0 0 C8.80288754 6.34043826 15.4186507 14.72648904 17.58203125 25.4921875 C18.92007691 37.90936834 17.85729499 48.88109459 10.39453125 59.2421875 C3.58210875 67.3274193 -4.72289951 73.55522767 -15.48876953 74.71533203 C-28.40007937 75.61089799 -39.16843729 74.04490094 -49.3515625 65.46484375 C-57.86959925 57.33325857 -62.42046403 48.68416257 -62.88867188 36.85693359 C-63.04371176 24.34263074 -60.22647828 14.71931927 -51.41796875 5.4921875 C-37.63784493 -7.66275112 -16.31305228 -10.17259803 0 0 Z " fill="#3B4950" transform="translate(70.41796875,13.5078125)"/>
<path d="M0 0 C7.17423307 5.57995906 13.73987931 12.11295747 15.16503906 21.51269531 C15.41480087 23.73618459 15.63289352 25.95733546 15.8125 28.1875 C11.89639516 28.36176756 7.98128503 28.46834155 4.0625 28.5625 C2.95132813 28.61277344 1.84015625 28.66304687 0.6953125 28.71484375 C-2.37519566 28.77033486 -5.16903545 28.76017991 -8.1875 28.1875 C-10.80859375 25.28125 -10.80859375 25.28125 -12.1875 22.1875 C-15.09691246 19.82851692 -16.90343853 19.22881803 -20.625 18.6875 C-25.40862622 19.35888614 -26.83120524 20.75315188 -30.1875 24.1875 C-30.8475 25.5075 -31.5075 26.8275 -32.1875 28.1875 C-40.1075 28.1875 -48.0275 28.1875 -56.1875 28.1875 C-54.9497138 17.04742424 -51.61309968 9.58508549 -43.40234375 1.91015625 C-30.04126628 -8.4817929 -14.28906873 -8.12515673 0 0 Z " fill="#FD3C00" transform="translate(68.1875,17.8125)"/>
<path d="M0 0 C3.91610484 -0.17426756 7.83121497 -0.28084155 11.75 -0.375 C12.86117188 -0.42527344 13.97234375 -0.47554687 15.1171875 -0.52734375 C18.18780985 -0.58283693 20.98136706 -0.57227713 24 0 C26.65234375 2.90625 26.65234375 2.90625 28 6 C30.55442605 8.6425097 31.72327315 8.96981162 35.4375 9.375 C39.30205884 8.96820433 41.00208972 8.43073806 44 6 C44.45503906 4.9790625 44.91007812 3.958125 45.37890625 2.90625 C48 0 48 0 50.57104492 -0.48779297 C53.81562798 -0.59153292 57.00714712 -0.5217184 60.25 -0.375 C61.93996094 -0.33439453 61.93996094 -0.33439453 63.6640625 -0.29296875 C66.44464237 -0.22227604 69.22135359 -0.1236504 72 0 C71.22246949 10.71575726 67.20352503 18.85782848 59.28125 26.27734375 C50.28427978 33.07128872 40.03999585 35.00363599 29 34 C19.04065522 31.31167337 10.10046486 25.36678862 4.48046875 16.640625 C1.47183285 11.05687422 0.50506043 6.27130962 0 0 Z " fill="#FDFDFD" transform="translate(12,50)"/>
<path d="M0 0 C9.28622735 2.55371252 17.29482508 8.22682048 22.51171875 16.35546875 C25.53470388 21.94236104 26.69379693 26.67180331 27 33 C24.36 33 21.72 33 19 33 C18.85304688 32.24976563 18.70609375 31.49953125 18.5546875 30.7265625 C16.06132472 19.3488036 11.46077393 11.02504639 2.1875 3.8125 C1.465625 3.214375 0.74375 2.61625 0 2 C0 1.34 0 0.68 0 0 Z " fill="#D92D02" transform="translate(57,13)"/>
<path d="M0 0 C2.64 0 5.28 0 8 0 C7.65238937 10.60212421 3.00330806 19.03642764 -4.70703125 26.26953125 C-8.72299388 29.30031736 -13.19131375 31.51853606 -18 33 C-18.66 32.67 -19.32 32.34 -20 32 C-19.43152344 31.62230469 -18.86304688 31.24460937 -18.27734375 30.85546875 C-7.13992332 22.91610561 -3.02333695 12.8632659 0 0 Z " fill="#CCD5D9" transform="translate(76,50)"/>
<path d="M0 0 C4.0743356 0.84881992 5.54405875 2.30225596 8 5.625 C8.625 8.625 8.625 8.625 8 11.625 C5.54405875 14.94774404 4.0743356 16.40118008 0 17.25 C-4.0743356 16.40118008 -5.54405875 14.94774404 -8 11.625 C-8.625 8.625 -8.625 8.625 -8 5.625 C-5.54405875 2.30225596 -4.0743356 0.84881992 0 0 Z " fill="#F1F2F2" transform="translate(48,39.375)"/>
<path d="M0 0 C2.625 0.375 2.625 0.375 5 1 C5.625 3.375 5.625 3.375 6 6 C5.34 6.66 4.68 7.32 4 8 C1.375 7.625 1.375 7.625 -1 7 C-1.625 4.625 -1.625 4.625 -2 2 C-1.34 1.34 -0.68 0.68 0 0 Z " fill="#43525A" transform="translate(46,44)"/>
</svg>
